<svg width="103" height="50" viewBox="0 0 103 50" fill="none" xmlns="http://www.w3.org/2000/svg">
<path d="M8.42029 50H0V0H13.087L28 31.3906L43.0145 0H56V50H47.6812V10.9407L30.3333 45.6033H25.6667L8.42029 10.9407V50Z" fill="#111111"/>
<path d="M81.1968 0C88.7034 0 94.1968 1.46558 97.6772 4.39673C101.226 7.25972 103 11.7246 103 17.7914C103 23.7901 101.226 28.2209 97.6772 31.0838C94.1286 33.8787 88.6693 35.2761 81.2992 35.2761H72.4961V50H64V0H81.1968ZM82.2205 27.7096C86.7244 27.7096 89.8635 26.8575 91.6378 25.1534C93.4803 23.4492 94.4016 20.7566 94.4016 17.0757C94.4016 13.6674 93.3438 11.2474 91.2283 9.81596C89.1129 8.38446 85.7008 7.66871 80.9921 7.66871H72.4961V27.7096H82.2205Z" fill="#111111"/>
</svg>
