<svg width="40" height="39" viewBox="0 0 40 39" fill="none" xmlns="http://www.w3.org/2000/svg">
<path d="M33.3594 0H6.64062C2.97311 0 0 2.97311 0 6.64062V32.3594C0 36.0269 2.97311 39 6.64062 39H33.3594C37.0269 39 40 36.0269 40 32.3594V6.64062C40 2.97311 37.0269 0 33.3594 0Z" fill="#333333"/>
<path d="M21.0278 10.2563L16.0367 18.4942L21.3766 27.2419C21.4109 27.3031 21.4205 27.375 21.4034 27.4431C21.3952 27.4722 21.3773 27.4794 21.35 27.4805L21.3197 27.48L21.2828 27.4791C21.2628 27.4791 21.2405 27.48 21.2156 27.4841H17.3656L17.29 27.4828C17.0825 27.4774 16.933 27.4477 16.8419 27.2955C16.4856 26.6015 16.1278 25.9083 15.7684 25.2159C15.447 24.5984 15.1167 23.9855 14.7778 23.3774L14.6281 23.1095C14.2228 22.3891 13.8247 21.6646 13.4341 20.9361H13.4072C13.0464 21.657 12.6752 22.3726 12.2936 23.0827C11.9087 23.7983 11.5285 24.5094 11.1531 25.2159C10.7774 25.9229 10.3928 26.6251 9.99937 27.3224C9.93609 27.4645 9.83094 27.4942 9.68453 27.4991L9.62359 27.5H5.9475L5.93156 27.5005L5.87906 27.5052C5.84984 27.5069 5.83234 27.5006 5.82672 27.4566C5.81671 27.3911 5.83105 27.3243 5.86703 27.2688L11.0458 18.7625L6.00109 10.2297C5.94755 10.1584 5.93859 10.1003 5.97422 10.0553C5.99402 10.0324 6.01888 10.0144 6.04684 10.0027C6.0748 9.99107 6.10509 9.98607 6.13531 9.98813H9.91875C10.0013 9.98366 10.0837 9.99743 10.1603 10.0284C10.2244 10.0649 10.2795 10.1153 10.3212 10.1761C10.6432 10.8917 11.001 11.6072 11.3947 12.3227C11.7852 13.0335 12.1833 13.7401 12.5887 14.4425C12.988 15.134 13.3595 15.8412 13.7023 16.5624H13.7292C14.0806 15.8414 14.4429 15.1258 14.8159 14.4158C15.1824 13.7181 15.558 13.0159 15.9428 12.3092C16.3226 11.6117 16.6938 10.9096 17.0564 10.203C17.077 10.1367 17.1139 10.0767 17.1637 10.0284C17.23 9.99486 17.3045 9.98088 17.3784 9.98813H20.8936C20.9259 9.98008 20.96 9.98273 20.9906 9.9957C21.0213 10.0087 21.047 10.0312 21.0637 10.06C21.0804 10.0888 21.0874 10.1223 21.0835 10.1554C21.0796 10.1884 21.065 10.2193 21.042 10.2434L21.0278 10.2563ZM28.9137 27.8302L28.7287 27.8322C27.4936 27.8511 26.2699 27.5944 25.1464 27.0809C24.0998 26.5966 23.2249 25.8059 22.6375 24.8134C22.0451 23.8296 21.7412 22.6038 21.7258 21.1361L21.7252 21.0166C21.7151 19.785 22.0298 18.5726 22.6377 17.5014C23.246 16.4412 24.1328 15.5677 25.202 14.9755L25.2941 14.9255C26.4566 14.2814 27.8608 13.9594 29.5069 13.9594L29.5787 13.9602L29.6609 13.9628L29.7531 13.9669L29.8556 13.9728L30.0278 13.985L30.2228 14.0006L30.3655 14.0131V8.72688C30.3655 8.60178 30.4191 8.53917 30.5264 8.53907H33.9075C33.9294 8.53593 33.9517 8.53793 33.9726 8.54491C33.9936 8.55189 34.0126 8.56366 34.0282 8.57927C34.0438 8.59489 34.0556 8.61393 34.0626 8.63489C34.0696 8.65585 34.0716 8.67814 34.0684 8.70001V24.5586C34.0684 24.825 34.0787 25.1116 34.0994 25.4186L34.1494 26.1147L34.1759 26.5174C34.1792 26.5731 34.1656 26.6286 34.1369 26.6765C34.1081 26.7244 34.0656 26.7625 34.0148 26.7858C33.1426 27.1495 32.2341 27.4193 31.3047 27.5906C30.5157 27.7363 29.716 27.8165 28.9137 27.8302ZM30.3655 24.5049V17.1794C30.2205 17.1401 30.0724 17.1132 29.9228 17.0989C29.74 17.0804 29.5564 17.0715 29.3727 17.072C28.7215 17.0655 28.078 17.2126 27.4944 17.5014C26.926 17.7842 26.4406 18.2095 26.0856 18.7358C25.7314 19.2539 25.5482 19.9305 25.5361 20.7655L25.5355 20.8556C25.5225 21.4405 25.618 22.0227 25.8172 22.5728C25.9794 23.0161 26.2358 23.419 26.5687 23.7536C26.8873 24.0615 27.2731 24.2911 27.6956 24.4244C28.1419 24.5688 28.6084 24.6414 29.0775 24.6392C29.3278 24.6392 29.5604 24.6302 29.7752 24.6122C29.9465 24.5993 30.1164 24.5711 30.2827 24.5278L30.3655 24.5049Z" fill="#FF61F6"/>
</svg>
