<svg width="40" height="40" viewBox="0 0 40 40" fill="none" xmlns="http://www.w3.org/2000/svg">
<path d="M30.625 3.05176e-05H9.375C4.19733 3.05176e-05 0 4.19736 0 9.37503V30.625C0 35.8027 4.19733 40 9.375 40H30.625C35.8027 40 40 35.8027 40 30.625V9.37503C40 4.19736 35.8027 3.05176e-05 30.625 3.05176e-05Z" fill="#333333"/>
<path d="M5.26813 15.6575C5.26813 15.6575 4.52828 15.1242 5.4161 14.4122L7.48422 12.5628C7.48422 12.5628 8.0761 11.9402 8.70172 12.4827L27.7875 26.9325V33.8616C27.7875 33.8616 27.7783 34.9497 26.3819 34.8294L5.26813 15.6575Z" fill="#2489CA"/>
<path d="M10.1876 20.1237L5.26818 24.5961C5.26818 24.5961 4.76255 24.9722 5.26818 25.6442L7.55209 27.7216C7.55209 27.7216 8.09459 28.3042 8.89599 27.6414L14.1113 23.6869L10.1876 20.1237Z" fill="#1070B3"/>
<path d="M18.8241 20.1608L27.8461 13.2717L27.7875 6.37971C27.7875 6.37971 27.4022 4.87549 26.1169 5.65846L14.1113 16.5852L18.8241 20.1608Z" fill="#0877B9"/>
<path d="M26.3819 34.8388C26.9059 35.3751 27.5409 35.1994 27.5409 35.1994L34.5717 31.7349C35.4717 31.1215 35.3453 30.3602 35.3453 30.3602V9.67161C35.3453 8.76224 34.4144 8.44802 34.4144 8.44802L28.3208 5.51052C26.9892 4.68755 26.1169 5.65849 26.1169 5.65849C26.1169 5.65849 27.2388 4.85099 27.7875 6.37974V33.7352C27.7882 33.9218 27.7472 34.1061 27.6674 34.2747C27.507 34.5983 27.1588 34.9004 26.3234 34.774L26.3819 34.8388Z" fill="#3C99D4"/>
</svg>
