<svg width="40" height="40" viewBox="0 0 40 40" fill="none" xmlns="http://www.w3.org/2000/svg">
<path d="M30.625 0H9.375C4.19733 0 0 4.19733 0 9.375V30.625C0 35.8027 4.19733 40 9.375 40H30.625C35.8027 40 40 35.8027 40 30.625V9.375C40 4.19733 35.8027 0 30.625 0Z" fill="#333333"/>
<path d="M19.9998 34.3752L25.8689 16.6889H14.1314L20 34.3745L19.9998 34.3752Z" fill="#E24329"/>
<path d="M19.9999 34.3752L14.1314 16.6889H5.90643L19.9999 34.3745V34.3752Z" fill="#FC6D26"/>
<path d="M5.90627 16.6884L4.12236 22.0634C3.9594 22.5534 4.13705 23.0906 4.5633 23.3936L20 34.3752L5.90627 16.6889V16.6884Z" fill="#FCA326"/>
<path d="M5.90625 16.6883H14.1314L10.5964 6.03595C10.4145 5.48798 9.62219 5.48798 9.44062 6.03595L5.90625 16.6888V16.6883Z" fill="#E24329"/>
<path d="M20 34.3752L25.8691 16.6889H34.0945L20 34.3745V34.3752Z" fill="#FC6D26"/>
<path d="M34.0942 16.6884L35.878 22.0634C36.0406 22.5534 35.8623 23.0906 35.4367 23.3936L20 34.3752L34.0942 16.6889V16.6884Z" fill="#FCA326"/>
<path d="M34.0941 16.6883H25.8691L29.4038 6.03595C29.5858 5.48814 30.378 5.48814 30.5595 6.03595L34.0945 16.6888L34.0941 16.6883Z" fill="#E24329"/>
</svg>
