<svg width="40" height="39" viewBox="0 0 40 39" fill="none" xmlns="http://www.w3.org/2000/svg">
<path d="M33.3594 0H6.64062C2.97311 0 0 2.97311 0 6.64062V32.3594C0 36.0269 2.97311 39 6.64062 39H33.3594C37.0269 39 40 36.0269 40 32.3594V6.64062C40 2.97311 37.0269 0 33.3594 0Z" fill="#333333"/>
<path d="M9.0069 27.3492V10.2026C9.0069 10.0775 9.06059 10.0149 9.16799 10.0148L9.33783 10.0144L9.62815 10.0112L10.0316 10.0033L11.3831 9.97467L12.8324 9.94779C13.3421 9.93894 13.8474 9.93446 14.3483 9.93436C15.7077 9.93436 16.8526 10.1043 17.783 10.4442C18.6224 10.7279 19.3879 11.1954 20.0236 11.8126C20.5626 12.3475 20.9792 12.993 21.2446 13.7045C21.4955 14.3969 21.6227 15.128 21.6203 15.8645C21.6203 17.2959 21.2893 18.4765 20.6274 19.4065C19.98 20.3139 19.077 21.0077 18.0336 21.3997L17.9441 21.4325C16.8546 21.8389 15.648 21.9858 14.3247 21.995L14.1191 21.9956L13.8139 21.994L13.66 21.9919L13.4885 21.9878L13.385 21.9837L13.3222 21.9805L13.1677 21.9748L12.9788 21.9709L12.6944 21.9689L12.6311 21.9687V27.3223C12.6358 27.3551 12.6328 27.3886 12.6223 27.4201C12.6119 27.4515 12.5942 27.4801 12.5708 27.5035C12.5473 27.527 12.5187 27.5446 12.4873 27.5551C12.4558 27.5656 12.4224 27.5686 12.3896 27.5639H9.19487C9.06945 27.564 9.00679 27.4924 9.0069 27.3492ZM12.6313 13.2348V18.8273C12.8636 18.8453 13.0781 18.8543 13.275 18.8542H14.1606C14.7712 18.8521 15.3783 18.7612 15.9627 18.5844L16.0792 18.548C16.611 18.3902 17.086 18.0827 17.4478 17.6623C17.7841 17.2658 17.9583 16.7193 17.9703 16.0229L17.9711 15.945C17.9852 15.4259 17.8502 14.9137 17.5819 14.4692C17.3001 14.0392 16.8925 13.7065 16.4147 13.5165C15.791 13.274 15.1247 13.1599 14.4558 13.1812L14.1155 13.1822L13.9008 13.184L13.696 13.1867L13.4069 13.1923L13.196 13.1983L13.0864 13.2023L12.94 13.2092L12.8153 13.2169L12.7442 13.2225L12.6828 13.2284L12.6558 13.2315L12.6313 13.2348ZM31.9953 17.8105C31.5272 17.57 31.0307 17.3893 30.5175 17.2726L30.3988 17.247C29.8342 17.1175 29.2578 17.0461 28.6786 17.034L28.5339 17.0323C28.1944 17.0231 27.8554 17.0638 27.5277 17.1531C27.3191 17.1997 27.1337 17.3184 27.0042 17.4884C26.9167 17.6245 26.8702 17.7829 26.8702 17.9447C26.8751 18.1016 26.9317 18.2524 27.0311 18.3739C27.1735 18.5404 27.3448 18.68 27.5366 18.7859L27.5947 18.8167C27.9773 19.0227 28.3715 19.2063 28.7753 19.3667C29.6758 19.6683 30.5363 20.0783 31.3378 20.5876C31.8839 20.9323 32.3358 21.4072 32.6528 21.9697C32.9193 22.5023 33.0528 23.0914 33.0419 23.6869C33.0578 24.4732 32.8331 25.2457 32.3978 25.9008C31.9318 26.5657 31.2844 27.0825 30.5328 27.3898C29.7458 27.7357 28.7792 27.9144 27.6333 27.9261L27.5142 27.9267C26.8038 27.9338 26.0945 27.8716 25.3961 27.7411L25.2467 27.712C24.6588 27.6042 24.0864 27.4239 23.5428 27.1753C23.4882 27.1471 23.442 27.105 23.409 27.0531C23.376 27.0012 23.3573 26.9414 23.355 26.88V23.9553C23.3518 23.9269 23.3564 23.8982 23.3682 23.8722C23.38 23.8462 23.3987 23.8239 23.4222 23.8076C23.4452 23.7946 23.4717 23.7888 23.4981 23.7912C23.5244 23.7936 23.5494 23.804 23.5697 23.8211C24.2117 24.1996 24.9088 24.4757 25.6358 24.6395C26.2767 24.8002 26.9341 24.8858 27.5947 24.8945C28.2206 24.8945 28.6813 24.814 28.9766 24.653C29.1099 24.5918 29.2226 24.4934 29.3012 24.3696C29.3798 24.2458 29.4208 24.1019 29.4194 23.9553C29.4194 23.723 29.2852 23.4994 29.0169 23.2845C28.9044 23.1945 28.7431 23.0966 28.533 22.9908L28.4325 22.9414L28.3253 22.8909L28.2691 22.8653L28.1513 22.8131L28.0899 22.7865L27.9617 22.7328L27.895 22.7055L27.7566 22.65L27.6847 22.6219L27.5358 22.5645L27.38 22.5062C26.5373 22.2132 25.7384 21.807 25.0052 21.2987C24.4806 20.934 24.0488 20.4515 23.7441 19.89C23.4803 19.3612 23.3469 18.777 23.355 18.1861C23.3534 17.4761 23.5484 16.7795 23.9185 16.1736C24.3403 15.5064 24.946 14.9751 25.6627 14.6442C26.4497 14.2509 27.4335 14.054 28.6142 14.0537C29.3058 14.0482 29.9967 14.0975 30.6805 14.2014C31.1756 14.2643 31.6596 14.3952 32.1189 14.5904C32.1928 14.6117 32.2524 14.6662 32.2799 14.7381C32.2981 14.8036 32.3071 14.8712 32.3067 14.9394V17.6495C32.3106 17.7136 32.2799 17.775 32.2263 17.8105C32.1904 17.8283 32.1509 17.8376 32.1108 17.8376C32.0707 17.8376 32.0312 17.8283 31.9953 17.8105Z" fill="#31A8FF"/>
</svg>
