<svg width="40" height="39" viewBox="0 0 40 39" fill="none" xmlns="http://www.w3.org/2000/svg">
<path d="M33.3594 0H6.64062C2.97311 0 0 2.97311 0 6.64062V32.3594C0 36.0269 2.97311 39 6.64062 39H33.3594C37.0269 39 40 36.0269 40 32.3594V6.64062C40 2.97311 37.0269 0 33.3594 0Z" fill="#333333"/>
<path d="M19.3834 23.4047H13.185L11.9237 27.3223C11.9066 27.3938 11.865 27.457 11.8062 27.5011C11.7474 27.5452 11.6751 27.5674 11.6017 27.5639H8.46217C8.28321 27.5639 8.22061 27.4655 8.27436 27.2686L13.6411 11.8127C13.6947 11.6517 13.7484 11.4684 13.802 11.2627C13.8723 10.9045 13.9083 10.5408 13.9094 10.1759C13.9057 10.1504 13.908 10.1244 13.9162 10.0999C13.9243 10.0755 13.9381 10.0532 13.9563 10.035C13.9745 10.0168 13.9967 10.003 14.0212 9.99486C14.0456 9.9867 14.0716 9.98434 14.0972 9.98797H18.3637C18.4887 9.98797 18.5603 10.0328 18.5784 10.1223L24.6695 27.2955C24.7232 27.4746 24.6695 27.5641 24.5086 27.5639H21.0201C20.9603 27.5704 20.9 27.555 20.8507 27.5205C20.8013 27.4859 20.7662 27.4346 20.7519 27.3761L19.3834 23.4047ZM14.1509 20.0237H18.3906L18.3301 19.8242L18.2331 19.5083L18.1639 19.2864L18.0534 18.937L17.8186 18.2016L17.612 17.5495L17.0756 15.8511C16.9421 15.4289 16.814 15.005 16.6912 14.5795L16.5931 14.2342L16.4784 13.8259L16.3034 13.1931L16.2706 13.0739H16.2439C16.1096 13.718 15.9461 14.3556 15.7539 14.9848L15.3558 16.2655L15.1367 16.973L14.9156 17.6892C14.8757 17.8186 14.8359 17.9465 14.7961 18.073L14.6773 18.4477L14.5592 18.8136L14.4417 19.1705L14.3248 19.5184C14.2861 19.633 14.2474 19.746 14.2087 19.8575L14.1509 20.0237ZM28.2917 12.8323C28.018 12.8433 27.7451 12.7964 27.4908 12.6947C27.2365 12.5929 27.0065 12.4387 26.8159 12.242C26.6259 12.0367 26.4783 11.7959 26.3816 11.5335C26.2849 11.271 26.241 10.992 26.2523 10.7125C26.2426 10.4358 26.2913 10.1602 26.3954 9.90357C26.4994 9.64699 26.6564 9.41523 26.8561 9.22344C27.2412 8.85369 27.7542 8.64678 28.2881 8.64578L28.3453 8.64641C28.9894 8.64641 29.4948 8.8387 29.8615 9.22328C30.0466 9.42317 30.1905 9.65759 30.2848 9.91312C30.3792 10.1687 30.4223 10.4403 30.4115 10.7125C30.4229 10.9931 30.3777 11.2732 30.2786 11.536C30.1795 11.7988 30.0285 12.0389 29.8347 12.2422C29.639 12.435 29.4068 12.5867 29.1517 12.6884C28.8966 12.7901 28.6237 12.8397 28.349 12.8344L28.2917 12.8323ZM26.4401 27.2955V14.4692C26.44 14.3082 26.5116 14.2277 26.6548 14.2277H29.9555C30.0985 14.2277 30.17 14.3082 30.1701 14.4692V27.2955C30.1701 27.4746 30.0986 27.5641 29.9555 27.5639H26.6817C26.5292 27.5639 26.4489 27.4836 26.4409 27.323L26.4401 27.2955Z" fill="#FF9A00"/>
</svg>
