<svg width="40" height="40" viewBox="0 0 40 40" fill="none" xmlns="http://www.w3.org/2000/svg">
<path d="M30.625 0H9.375C4.19733 0 0 4.19733 0 9.375V30.625C0 35.8027 4.19733 40 9.375 40H30.625C35.8027 40 40 35.8027 40 30.625V9.375C40 4.19733 35.8027 0 30.625 0Z" fill="#333333"/>
<mask id="mask0_45_33" style="mask-type:luminance" maskUnits="userSpaceOnUse" x="9" y="4" width="22" height="32">
<path d="M9.53125 4.37503H30.3688V35.625H9.53125V4.37503Z" fill="white"/>
</mask>
<g mask="url(#mask0_45_33)">
<path d="M14.7417 35.6251C17.6167 35.6251 19.95 33.2918 19.95 30.4168V25.2083H14.7417C11.8667 25.2083 9.53326 27.5418 9.53326 30.4168C9.53326 33.2918 11.8667 35.6251 14.7417 35.6251Z" fill="#0ACF83"/>
<path d="M9.53326 20C9.53326 17.125 11.8667 14.7917 14.7417 14.7917H19.95V25.2083H14.7417C11.8667 25.2083 9.53326 22.875 9.53326 20Z" fill="#A259FF"/>
<path d="M9.53351 9.58334C9.53351 6.70834 11.8669 4.37506 14.7419 4.37506H19.9502V14.7918H14.7419C11.8669 14.7918 9.53351 12.4583 9.53351 9.58334Z" fill="#F24E1E"/>
<path d="M19.95 4.37506H25.1582C28.0332 4.37506 30.3667 6.70834 30.3667 9.58334C30.3667 12.4583 28.0332 14.7918 25.1582 14.7918H19.95V4.37506Z" fill="#FF7262"/>
<path d="M30.3667 20C30.3667 22.875 28.0332 25.2083 25.1582 25.2083C22.2832 25.2083 19.95 22.875 19.95 20C19.95 17.125 22.2832 14.7917 25.1582 14.7917C28.0332 14.7917 30.3667 17.125 30.3667 20Z" fill="#1ABCFE"/>
</g>
</svg>
